Intruders 2011 DVDSCR READNFO XviD-SiC

IMDB Link: 
http://www.imdb.com/title/tt1634121/

Description:
Two children living in different countries are visited nightly by a faceless being who wants to take possession of them. 

General
Complete name                    : Intruders.2011.SCREENER.READNFO.XviD-SiC.avi
Format                           : AVI
Format/Info                      : Audio Video Interleave
Format profile                   : OpenDML
Format settings                  : rec
File size                        : 869 MiB
Duration                         : 1h 41mn
Overall bit rate                 : 1 202 Kbps
Writing application              : AVI-Mux GUI 1.17.8, Aug 30 2008  12:36:58

Video
ID                               : 0
Format                           : MPEG-4 Visual
Format profile                   : Advanced Simple@L5
Format settings, BVOP            : 1
Format settings, QPel            : No
Format settings, GMC             : No warppoints
Format settings, Matrix          : Default (H.263)
Muxing mode                      : Packed bitstream
Codec ID                         : XVID
Codec ID/Hint                    : XviD
Duration                         : 1h 41mn
Bit rate                         : 1 006 Kbps
Width                            : 640 pixels
Height                           : 272 pixels
Display aspect ratio             : 2.35:1
Frame rate                       : 29.970 fps
Color space                      : YUV
Chroma subsampling               : 4:2:0
Bit depth                        : 8 bits
Scan type                        : Progressive
Compression mode                 : Lossy
Bits/(Pixel*Frame)               : 0.193
Stream size                      : 727 MiB (84%)
Writing library                  : XviD 64

Audio
ID                               : 1
Format                           : MPEG Audio
Format version                   : Version 1
Format profile                   : Layer 3
Mode                             : Joint stereo
Mode extension                   : MS Stereo
Codec ID                         : 55
Codec ID/Hint                    : MP3
Duration                         : 1h 41mn
Bit rate mode                    : Constant
Bit rate                         : 192 Kbps
Channel(s)                       : 2 channels
Sampling rate                    : 44.1 KHz
Compression mode                 : Lossy
Stream size                      : 139 MiB (16%)
Alignment                        : Aligned on interleaves
Interleave, duration             : 719 ms (21.54 video frames)
Interleave, preload duration     : 208 ms
Title                            : intruders
Writing library                  : LAME3.98r
Encoding settings                : -m j -V 4 -q 2 -lowpass 18.6 -b 192


Poster:

 
http://i.imgur.com/gqIiS.jpg


Screens:

 
http://i.imgur.com/9kTlk.png

 
http://i.imgur.com/GplDJ.png

 
http://i.imgur.com/NHGHK.png


ENJOY!